#!OML:ASF G:\ViconDB\ViconDB\414\test\team2\shane.ASF
:FULLY-SPECIFIED
:DEGREES
254
root 3.33528 16.3202 8.17044 -8.86434 6.45155 -8.50884
lowerback 5.15516 -3.08745 5.30987
upperback 4.11078 -3.95474 6.5665
thorax 1.48915 -1.95074 3.98439
lowerneck -17.9946 -4.21514 -6.17759
upperneck 20.2042 -5.89797 7.4525
head 9.79368 -2.37391 2.81622
rclavicle -1.58034e-014 -7.95139e-015
rhumerus -40.8049 -6.73357 -80.8374
rradius 25.2156
rwrist 37.1739
rhand -29.653 -15.8057
rfingers 7.12502
rthumb -2.98233 -45.7646
lclavicle -1.58034e-014 -7.95139e-015
lhumerus -30.4825 -24.975 101.556
lradius 28.2913
lwrist -9.92053
lhand -37.2143 7.10741
lfingers 7.12502
lthumb -10.2814 36.8361
rfemur -8.95879 -17.8327 28.6857
rtibia 43.1973
rfoot -26.5204 1.06748
rtoes -2.65511
lfemur 4.69608 7.11531 4.03597
ltibia 66.2343
lfoot -11.549 -19.6196
ltoes -11.9793
255
root 3.32511 16.3121 8.33446 -8.92965 6.25176 -8.63861
lowerback 4.73464 -2.82212 5.6248
upperback 4.439 -3.66009 6.4305
thorax 2.02929 -1.78437 3.62508
lowerneck -17.7408 -4.37842 -6.15598
upperneck 19.7478 -6.17819 7.72198
head 9.61729 -2.48239 2.86486
rclavicle 7.05686e-015 -7.95139e-015
rhumerus -39.2762 -5.09185 -82.2915
rradius 25.8104
rwrist 34.9976
rhand -29.572 -15.7787
rfingers 7.12502
rthumb -2.90414 -45.7387
lclavicle 7.05686e-015 -7.95139e-015
lhumerus -30.9325 -25.4372 101.539
lradius 27.8995
lwrist -9.95429
lhand -37.5469 6.99401
lfingers 7.12502
lthumb -10.6023 36.7066
rfemur -8.09771 -17.8285 28.7561
rtibia 43.0051
rfoot -27.0037 1.06214
rtoes -2.59423
lfemur 3.00166 7.28602 4.30837
ltibia 67.6528
lfoot -12.7326 -19.114
ltoes -11.4066
256
root 3.30796 16.3141 8.49357 -9.04578 6.05515 -8.71017
lowerback 4.5094 -2.6073 5.69911
upperback 4.72175 -3.41898 6.35809
thorax 2.43669 -1.65319 3.48429
lowerneck -17.2675 -4.51094 -6.42198
upperneck 19.2129 -6.39424 8.22779
head 9.38857 -2.56513 3.05534
rclavicle 3.34952e-014 -2.8625e-014
rhumerus -37.6715 -4.01366 -82.9939
rradius 25.81
rwrist 36.0462
rhand -29.7503 -15.7796
rfingers 7.12502
rthumb -3.07628 -45.7371
lclavicle 3.34952e-014 -2.8625e-014
lhumerus -31.4604 -25.7365 101.485
lradius 27.5362
lwrist -10.0337
lhand -37.8671 7.081
lfingers 7.12502
lthumb -10.9111 36.7775
rfemur -7.23029 -17.7294 28.764
rtibia 42.8145
rfoot -27.416 1.22005
rtoes -2.10856
lfemur 1.37434 7.45199 4.39846
ltibia 68.7373
lfoot -14.2409 -18.3579
ltoes -12.0979
257
root 3.29117 16.3039 8.65097 -9.14204 5.91566 -8.66435
lowerback 4.2139 -2.35759 5.70542
upperback 5.01474 -3.13892 6.1821
thorax 2.89198 -1.50102 3.2722
lowerneck -17.0139 -4.73132 -6.61409
upperneck 18.8785 -6.75674 8.74257
head 9.28374 -2.70328 3.21551
rclavicle -4.30369e-014 6.2816e-014
rhumerus -36.0244 -2.83288 -83.9994
rradius 26.1919
rwrist 34.9683
rhand -29.9233 -15.7635
rfingers 7.12502
rthumb -3.24342 -45.7186
lclavicle -4.30369e-014 6.2816e-014
lhumerus -31.7703 -25.5968 101.234
lradius 26.8757
lwrist -10.7078
lhand -37.9265 7.16819
lfingers 7.12502
lthumb -10.9684 36.8617
rfemur -6.36412 -17.7093 28.6839
rtibia 42.604
rfoot -27.7984 1.00516
rtoes -2.72402
lfemur -0.211138 7.51887 4.28603
ltibia 69.5565
lfoot -15.5234 -17.685
ltoes -11.2884
258
root 3.26943 16.2878 8.80168 -9.36206 5.7766 -8.79719
lowerback 4.23044 -2.11249 5.7332
upperback 5.2227 -2.82656 6.15927
thorax 3.09329 -1.33892 3.22569
lowerneck -16.5764 -4.979 -7.09153
upperneck 18.4531 -7.09389 9.30676
head 9.12754 -2.85316 3.44524
rclavicle 2.8128e-014 -5.96354e-014
rhumerus -34.4062 -1.85754 -84.4974
rradius 26.2428
rwrist 35.138
rhand -30.3181 -15.9549
rfingers 7.12502
rthumb -3.62466 -45.9039
lclavicle 2.8128e-014 -5.96354e-014
lhumerus -32.2996 -25.7862 101.373
lradius 26.449
lwrist -9.54858
lhand -38.3235 6.82668
lfingers 7.12502
lthumb -11.3513 36.4995
rfemur -5.42543 -17.5874 28.8062
rtibia 42.3767
rfoot -28.132 0.835567
rtoes -2.82155
lfemur -1.70857 7.68394 4.38903
ltibia 70.1114
lfoot -16.9131 -16.7902
ltoes -11.0873
259
root 3.25024 16.2843 8.95488 -9.53433 5.76048 -8.67995
lowerback 4.23569 -1.92103 5.58115
upperback 5.37316 -2.58219 5.98737
thorax 3.24049 -1.21509 3.12461
lowerneck -16.1611 -5.11437 -7.36934
upperneck 18.0826 -7.32061 9.82924
head 8.97886 -2.94216 3.64294
rclavicle 2.90226e-014 1.51076e-014
rhumerus -32.8134 -1.0159 -85.0792
rradius 26.4036
rwrist 34.9059
rhand -30.3024 -15.9078
rfingers 7.12502
rthumb -3.60953 -45.857
lclavicle 2.90226e-014 1.51076e-014
lhumerus -32.8195 -25.4254 101.264
lradius 25.7941
lwrist -9.51949
lhand -38.4278 7.36329
lfingers 7.12502
lthumb -11.4519 37.0305
rfemur -4.45245 -17.5344 28.6119
rtibia 42.1124
rfoot -28.4999 0.620443
rtoes -3.18258
lfemur -3.20369 7.48043 4.0272
ltibia 70.381
lfoot -17.9288 -15.8104
ltoes -11.1476
260
root 3.22673 16.2746 9.10474 -9.86728 5.62207 -8.65218
lowerback 4.49174 -1.67078 5.48306
upperback 5.55109 -2.23468 5.8118
thorax 3.27274 -1.03912 2.99605
lowerneck -15.9481 -5.20275 -7.34892
upperneck 17.8805 -7.49299 10.0541
head 8.89703 -3.00795 3.69429
rclavicle 3.60794e-014 -4.21423e-014
rhumerus -31.1733 -0.472648 -85.6129
rradius 26.3846
rwrist 34.9608
rhand -30.6404 -15.9302
rfingers 7.12502
rthumb -3.93591 -45.8736
lclavicle 3.60794e-014 -4.21423e-014
lhumerus -33.435 -25.2132 101.091
lradius 25.1293
lwrist -10.1947
lhand -39.0031 7.92553
lfingers 7.12502
lthumb -12.0066 37.5611
rfemur -3.2952 -17.3571 28.5125
rtibia 41.8037
rfoot -28.8179 0.48812
rtoes -3.10202
lfemur -4.41339 7.39139 3.82414
ltibia 70.3952
lfoot -18.9442 -14.6159
ltoes -10.6706
261
root 3.20953 16.2665 9.24734 -10.1666 5.50119 -8.63153
lowerback 4.89692 -1.42476 5.40154
upperback 5.64618 -1.87276 5.69423
thorax 3.13728 -0.859225 2.92093
lowerneck -15.7286 -5.31683 -7.38024
upperneck 17.647 -7.64953 10.1193
head 8.7972 -3.08733 3.70089
rclavicle -1.95803e-014 -2.46493e-014
rhumerus -29.6808 -0.601979 -85.6593
rradius 26.3548
rwrist 36.8242
rhand -30.5804 -16.0846
rfingers 7.12502
rthumb -3.87792 -46.0291
lclavicle -1.95803e-014 -2.46493e-014
lhumerus -33.911 -24.4859 100.855
lradius 24.4489
lwrist -10.1933
lhand -39.2478 8.05572
lfingers 7.12502
lthumb -12.2426 37.6774
rfemur -2.17489 -17.2594 28.4262
rtibia 41.4103
rfoot -29.0441 0.236547
rtoes -3.61451
lfemur -5.66622 7.32787 3.52631
ltibia 70.1738
lfoot -19.8394 -13.0554
ltoes -10.8113
262
root 3.19843 16.2657 9.39539 -10.3877 5.2664 -8.5167
lowerback 5.17408 -1.14708 5.37473
upperback 5.69869 -1.47609 5.50391
thorax 3.02575 -0.658172 2.73236
lowerneck -15.5321 -5.35231 -7.39303
upperneck 17.5146 -7.71106 10.1951
head 8.72657 -3.11768 3.72228
rclavicle 2.91716e-014 6.91771e-014
rhumerus -28.1953 -1.05315 -85.7683
rradius 26.2533
rwrist 37.9095
rhand -30.4884 -15.9493
rfingers 7.12502
rthumb -3.78913 -45.8954
lclavicle 2.91716e-014 6.91771e-014
lhumerus -34.419 -23.3039 100.381
lradius 23.6255
lwrist -11.198
lhand -39.523 8.36749
lfingers 7.12502
lthumb -12.5079 37.9731
rfemur -1.04505 -17.298 28.1487
rtibia 40.9336
rfoot -29.2377 0.333234
rtoes -3.89045
lfemur -6.84079 7.18592 3.13619
ltibia 69.7024
lfoot -20.3538 -11.8462
ltoes -11.0239
263
root 3.18024 16.2683 9.53962 -10.6026 5.27089 -8.35431
lowerback 6.31064 -1.24127 4.16633
upperback 5.15012 -1.50835 5.79428
thorax 1.85103 -0.734317 3.73599
lowerneck -14.8263 -5.01785 -7.40251
upperneck 17.7875 -7.16822 9.54493
head 8.60922 -2.94499 3.58628
rclavicle -1.30204e-014 5.56597e-014
rhumerus -27.6886 0.550943 -85.9598
rradius 26.2734
rwrist 38.1235
rhand -30.3412 -16.2099
rfingers 7.12502
rthumb -3.64695 -46.1585
lclavicle -1.30204e-014 5.56597e-014
lhumerus -35.7128 -20.0244 99.9982
lradius 22.938
lwrist -12.4653
lhand -39.5545 8.52302
lfingers 7.12502
lthumb -12.5383 38.1268
rfemur 0.085777 -17.4911 27.8106
rtibia 40.3729
rfoot -29.3166 0.28072
rtoes -5.15054
lfemur -8.04231 6.9807 2.60863
ltibia 69.0222
lfoot -21.0266 -10.4129
ltoes -11.1794
264
root 3.17122 16.2795 9.6836 -10.7677 5.21029 -8.22241
lowerback 5.06742 -0.745517 5.54981
upperback 6.10649 -0.958711 4.73409
thorax 3.48981 -0.364219 1.8192
lowerneck -15.5216 -5.4892 -6.87764
upperneck 17.1561 -8.00675 10.2541
head 8.61484 -3.22317 3.61279
rclavicle -1.30204e-014 5.56597e-014
rhumerus -27.6886 0.550943 -85.9598
rradius 26.2734
rwrist 38.1235
rhand -30.3412 -16.2099
rfingers 7.12502
rthumb -3.64695 -46.1585
lclavicle 3.926e-015 3.81667e-014
lhumerus -35.352 -21.8616 98.8776
lradius 22.6311
lwrist -11.7038
lhand -38.9904 8.94157
lfingers 7.12502
lthumb -11.9944 38.5779
rfemur 1.22141 -17.6678 27.4517
rtibia 39.7025
rfoot -29.3447 0.499333
rtoes -5.43573
lfemur -9.20031 6.91927 2.04312
ltibia 68.0976
lfoot -21.758 -8.96616
ltoes -10.8872
